<svg width="16" height="16" viewBox="0 0 16 16" fill="none" xmlns="http://www.w3.org/2000/svg">
<path d="M5.85742 12.7578C6.59253 12.8327 7.16683 13.4532 7.16699 14.208C7.16685 15.0132 6.51319 15.6669 5.70801 15.667C4.95318 15.6669 4.33263 15.0926 4.25781 14.3575L4.25 14.208L4.25781 14.0596C4.33234 13.3242 4.95297 12.7502 5.70801 12.75L5.85742 12.7578ZM11.5244 12.7578C12.2594 12.8328 12.8328 13.4533 12.833 14.208C12.8329 15.0132 12.1802 15.6669 11.375 15.667C10.62 15.667 9.99862 15.0927 9.92383 14.3575L9.91699 14.208L9.92383 14.0596C9.99834 13.3241 10.6198 12.75 11.375 12.75L11.5244 12.7578ZM5.70801 14.167C5.68526 14.1672 5.66717 14.1853 5.66699 14.208L5.67871 14.2383C5.68615 14.2455 5.69686 14.2499 5.70801 14.25C5.71941 14.25 5.73081 14.2458 5.73828 14.2383L5.75 14.208L5.73828 14.1787L5.70801 14.167ZM11.375 14.167C11.3521 14.167 11.3332 14.1852 11.333 14.208C11.3332 14.2309 11.3521 14.25 11.375 14.25C11.3862 14.25 11.3969 14.2456 11.4043 14.2383L11.417 14.208L11.4043 14.1787L11.375 14.167ZM1.9375 0.00589345C2.01001 0.0114683 2.10522 0.0237808 2.20996 0.0576513L2.31836 0.0996434L2.45703 0.175815C2.54524 0.232634 2.62563 0.301593 2.69434 0.380893L2.78906 0.507847L2.8457 0.608433C2.8943 0.707742 2.91976 0.800938 2.93555 0.872104C2.95451 0.957725 2.96783 1.0561 2.97852 1.13089L3.22168 2.83304H14.2314C14.3353 2.83304 14.4622 2.83236 14.5713 2.84183C14.6582 2.84942 14.7801 2.86691 14.9111 2.91898L15.0449 2.98343L15.127 3.03617C15.2859 3.14884 15.4123 3.30221 15.4932 3.47953L15.5303 3.56937L15.5684 3.71292C15.595 3.85129 15.5889 3.97382 15.5801 4.06058C15.569 4.16964 15.5448 4.29441 15.5254 4.39652L14.5879 9.31839C14.5275 9.63531 14.4744 9.91374 14.4131 10.1416C14.3493 10.3786 14.264 10.6127 14.1123 10.833C13.8845 11.1639 13.5688 11.425 13.2012 11.5869C12.9565 11.6947 12.7104 11.7356 12.4658 11.7539C12.2305 11.7715 11.9466 11.7705 11.624 11.7705H5.5625C5.22345 11.7705 4.92649 11.7718 4.68066 11.753C4.42569 11.7334 4.16923 11.6895 3.91602 11.5733C3.53667 11.399 3.2151 11.118 2.99121 10.7657C2.84185 10.5304 2.76377 10.2823 2.70996 10.0323C2.65813 9.7913 2.61894 9.49703 2.57324 9.16117L1.82812 3.6846V3.68363L1.5166 1.50003H0.75C0.335877 1.50003 0.000146524 1.16412 0 0.750034C0 0.335821 0.335786 3.40733e-05 0.75 3.40733e-05H1.6748C1.75046 3.18261e-05 1.85005 -0.00080015 1.9375 0.00589345ZM4.05957 8.95902C4.10835 9.31751 4.13983 9.54516 4.17676 9.71683C4.21168 9.87902 4.24125 9.93588 4.25781 9.96195C4.32669 10.0701 4.42547 10.1565 4.54199 10.21C4.57024 10.2229 4.63077 10.2442 4.7959 10.2569C4.97102 10.2703 5.2007 10.2705 5.5625 10.2705H11.624C11.9687 10.2705 12.187 10.2703 12.3535 10.2578C12.5105 10.2461 12.5688 10.2262 12.5967 10.2139C12.7096 10.1641 12.8069 10.0841 12.877 9.98246C12.8942 9.95739 12.9239 9.90407 12.9648 9.75199C13.0082 9.59068 13.0498 9.37678 13.1143 9.03812L14.0107 4.33304H3.43066L4.05957 8.95902Z" fill="#DFEAFF"/>
</svg>
