<svg preserveAspectRatio="none" width="100%" height="100%" overflow="visible" style="display: block;" viewBox="0 0 27 27" fill="none" xmlns="http://www.w3.org/2000/svg">
<g id="bell-01">
<path id="Icon" d="M10.5234 23.625C11.3167 24.3252 12.3587 24.75 13.5 24.75C14.6413 24.75 15.6833 24.3252 16.4766 23.625M20.25 9C20.25 7.20979 19.5388 5.4929 18.273 4.22703C17.0071 2.96116 15.2902 2.25 13.5 2.25C11.7098 2.25 9.9929 2.96116 8.72703 4.22703C7.46116 5.4929 6.75 7.20979 6.75 9C6.75 12.4765 5.87303 14.8567 4.89337 16.4311C4.06702 17.7591 3.65384 18.4231 3.66899 18.6084C3.68577 18.8135 3.72922 18.8917 3.8945 19.0143C4.04377 19.125 4.71666 19.125 6.06246 19.125H20.9375C22.2833 19.125 22.9562 19.125 23.1055 19.0143C23.2708 18.8917 23.3142 18.8135 23.331 18.6084C23.3462 18.4231 22.933 17.7591 22.1066 16.4311C21.127 14.8567 20.25 12.4765 20.25 9Z" stroke="var(--stroke-0, white)" stroke-width="2.25" stroke-linecap="round" stroke-linejoin="round"/>
</g>
</svg>
