<svg preserveAspectRatio="none" width="100%" height="100%" overflow="visible" style="display: block;" viewBox="0 0 27 27" fill="none" xmlns="http://www.w3.org/2000/svg">
<g id="diamond-01">
<path id="Icon" d="M2.81198 10.125H24.187M11.2495 3.375L8.99948 10.125L13.4995 23.0625L17.9995 10.125L15.7495 3.375M14.1909 22.7953L24.2693 10.7012C24.4401 10.4962 24.5256 10.3937 24.5582 10.2793C24.587 10.1784 24.587 10.0716 24.5582 9.97069C24.5256 9.85629 24.4401 9.7538 24.2693 9.54883L19.3943 3.69883C19.2951 3.5798 19.2455 3.52028 19.1847 3.47749C19.1309 3.43958 19.0708 3.41143 19.0072 3.39432C18.9354 3.375 18.8579 3.375 18.7029 3.375H8.29602C8.14107 3.375 8.06359 3.375 7.9918 3.39432C7.92819 3.41143 7.86808 3.43958 7.81421 3.47749C7.75341 3.52028 7.70381 3.5798 7.60462 3.69883L2.72962 9.54883C2.55881 9.7538 2.47341 9.85628 2.44077 9.97069C2.412 10.0715 2.412 10.1784 2.44077 10.2793C2.47341 10.3937 2.55881 10.4962 2.72962 10.7012L12.8081 22.7953C13.0455 23.0802 13.1642 23.2227 13.3064 23.2747C13.4311 23.3202 13.5679 23.3202 13.6926 23.2747C13.8347 23.2227 13.9534 23.0802 14.1909 22.7953Z" stroke="var(--stroke-0, white)" stroke-width="2.25" stroke-linecap="round" stroke-linejoin="round"/>
</g>
</svg>
