<svg preserveAspectRatio="none" width="100%" height="100%" overflow="visible" style="display: block;" viewBox="0 0 25 25" fill="none" xmlns="http://www.w3.org/2000/svg">
<g id="Frame 11">
<g id="Vector">
<path d="M10.9538 3.32031H9.66482C8.18556 3.32031 6.81866 4.10868 6.07903 5.38844L3.19243 10.383C3.09358 10.5541 3.00795 10.7304 2.93552 10.9106L7.03653 10.1559C8.69248 9.85117 9.98818 8.55681 10.2932 6.90256L10.9538 3.32031Z" fill="white"/>
<path d="M2.92969 13.9771C3.00334 14.1624 3.09092 14.3437 3.19243 14.5193L6.07903 19.5139C6.81866 20.7937 8.18556 21.582 9.66482 21.582H10.9563L10.2932 17.9863C9.98818 16.332 8.69248 15.0377 7.03653 14.7329L2.92969 13.9771Z" fill="white"/>
<path d="M14.2118 21.582H15.438C16.9173 21.582 18.2842 20.7937 19.0238 19.5139L21.9104 14.5193C22.0096 14.3478 22.0954 14.1709 22.168 13.9901L18.1316 14.7329C16.4757 15.0377 15.18 16.332 14.8749 17.9863L14.2118 21.582Z" fill="white"/>
<path d="M22.1621 10.8977C22.0908 10.7219 22.0069 10.55 21.9104 10.383L19.0238 5.38844C18.2842 4.10868 16.9173 3.32031 15.438 3.32031H14.2143L14.8749 6.90256C15.18 8.5568 16.4757 9.85117 18.1316 10.1559L22.1621 10.8977Z" fill="white"/>
<path d="M12.5437 3.67864C12.5491 3.63062 12.619 3.63062 12.6244 3.67864L12.9437 6.51498C13.2691 9.40577 15.5495 11.6892 18.4425 12.0212L21.7792 12.4041C21.8272 12.4096 21.8272 12.4792 21.7792 12.4847L18.4425 12.8676C15.5495 13.1996 13.2691 15.4831 12.9437 18.3739L12.6244 21.2102C12.619 21.2582 12.5491 21.2582 12.5437 21.2102L12.2249 18.3783C11.8993 15.4855 9.61601 13.2011 6.72069 12.8715L3.32413 12.4847C3.27613 12.4792 3.27613 12.4096 3.32413 12.4041L6.72068 12.0174C9.616 11.6877 11.8993 9.40335 12.2249 6.51051L12.5437 3.67864Z" fill="var(--fill-0, white)"/>
</g>
</g>
</svg>
