<svg preserveAspectRatio="none" width="100%" height="100%" overflow="visible" style="display: block;" viewBox="0 0 144 144" fill="none" xmlns="http://www.w3.org/2000/svg">
<g id="Frame 11">
<g id="Vector">
<path d="M63.0942 19.125H55.6694C47.1488 19.125 39.2755 23.666 35.0152 31.0374L18.3884 59.8063C17.819 60.7915 17.3258 61.8072 16.9086 62.8453L40.5304 58.4981C50.0687 56.7428 57.5319 49.2872 59.2891 39.7587L63.0942 19.125Z" fill="white"/>
<path d="M16.875 80.5082C17.2992 81.5755 17.8037 82.6195 18.3884 83.6312L35.0152 112.4C39.2755 119.772 47.1488 124.312 55.6694 124.312H63.1085L59.2891 103.601C57.5319 94.0725 50.0687 86.6169 40.5304 84.8615L16.875 80.5082Z" fill="white"/>
<path d="M81.8602 124.312H88.923C97.4435 124.312 105.317 119.772 109.577 112.4L126.204 83.6312C126.775 82.6431 127.27 81.6243 127.688 80.5829L104.438 84.8615C94.9 86.6169 87.4368 94.0725 85.6796 103.601L81.8602 124.312Z" fill="white"/>
<path d="M127.654 62.7705C127.243 61.7584 126.76 60.7678 126.204 59.8063L109.577 31.0374C105.317 23.666 97.4435 19.125 88.923 19.125H81.8745L85.6796 39.7587C87.4368 49.2872 94.9 56.7428 104.438 58.4981L127.654 62.7705Z" fill="white"/>
<path d="M72.2519 21.189C72.283 20.9124 72.6854 20.9123 72.7166 21.189L74.5558 37.5263C76.4302 54.1772 89.5651 67.33 106.229 69.2422L125.448 71.4478C125.725 71.4795 125.725 71.8802 125.448 71.9119L106.229 74.1175C89.5652 76.0297 76.4302 89.1824 74.5558 105.833L72.7166 122.171C72.6854 122.447 72.283 122.447 72.2519 122.171L70.4156 105.859C68.5398 89.1964 55.3882 76.0385 38.7111 74.1396L19.147 71.9119C18.8705 71.8804 18.8705 71.4792 19.147 71.4478L38.7111 69.2201C55.3882 67.3212 68.5398 54.1633 70.4156 37.5006L72.2519 21.189Z" fill="var(--fill-0, white)"/>
</g>
</g>
</svg>
