<svg preserveAspectRatio="none" width="100%" height="100%" overflow="visible" style="display: block;" viewBox="0 0 27 27" fill="none" xmlns="http://www.w3.org/2000/svg">
<g id="maximize-02">
<path id="Icon" d="M9 3.375H8.775C6.88482 3.375 5.93973 3.375 5.21778 3.74285C4.58274 4.06643 4.06643 4.58274 3.74285 5.21778C3.375 5.93973 3.375 6.88482 3.375 8.775V9M9 23.625H8.775C6.88482 23.625 5.93973 23.625 5.21778 23.2571C4.58274 22.9336 4.06643 22.4173 3.74285 21.7822C3.375 21.0603 3.375 20.1152 3.375 18.225V18M23.625 9V8.775C23.625 6.88482 23.625 5.93973 23.2571 5.21778C22.9336 4.58274 22.4173 4.06643 21.7822 3.74285C21.0603 3.375 20.1152 3.375 18.225 3.375H18M23.625 18V18.225C23.625 20.1152 23.625 21.0603 23.2571 21.7822C22.9336 22.4173 22.4173 22.9336 21.7822 23.2571C21.0603 23.625 20.1152 23.625 18.225 23.625H18" stroke="var(--stroke-0, white)" stroke-width="2.25" stroke-linecap="round" stroke-linejoin="round"/>
</g>
</svg>
