<svg preserveAspectRatio="none" width="100%" height="100%" overflow="visible" style="display: block;" viewBox="0 0 27 27" fill="none" xmlns="http://www.w3.org/2000/svg">
<g id="message-chat-circle">
<path id="Icon" d="M6.85616 12.6324C6.78623 12.1818 6.74996 11.7201 6.74996 11.25C6.74996 6.27944 10.8059 2.25 15.8092 2.25C20.8124 2.25 24.8684 6.27944 24.8684 11.25C24.8684 12.3728 24.6614 13.4476 24.2833 14.4388C24.2048 14.6447 24.1655 14.7476 24.1477 14.828C24.13 14.9076 24.1232 14.9636 24.1213 15.0451C24.1193 15.1274 24.1305 15.2181 24.1528 15.3994L24.6057 19.0783C24.6547 19.4766 24.6793 19.6757 24.613 19.8205C24.555 19.9473 24.4519 20.0481 24.3237 20.1032C24.1775 20.1661 23.979 20.137 23.5819 20.0788L19.9985 19.5535C19.8114 19.5261 19.7178 19.5124 19.6326 19.5129C19.5484 19.5133 19.49 19.5196 19.4075 19.5369C19.3242 19.5544 19.2176 19.5943 19.0046 19.6741C18.0109 20.0463 16.934 20.25 15.8092 20.25C15.3387 20.25 14.8766 20.2144 14.4255 20.1457M8.58553 24.75C11.921 24.75 14.625 21.9798 14.625 18.5625C14.625 15.1452 11.921 12.375 8.58553 12.375C5.25002 12.375 2.54605 15.1452 2.54605 18.5625C2.54605 19.2494 2.65531 19.9102 2.85699 20.5276C2.94225 20.7885 2.98487 20.919 2.99886 21.0082C3.01347 21.1012 3.01603 21.1535 3.01059 21.2476C3.00538 21.3376 2.98284 21.4395 2.93776 21.6431L2.25 24.75L5.61915 24.2899C5.80305 24.2648 5.895 24.2522 5.97529 24.2527C6.05983 24.2533 6.10471 24.2579 6.18762 24.2744C6.26637 24.2901 6.38343 24.3314 6.61755 24.4141C7.23442 24.6318 7.8965 24.75 8.58553 24.75Z" stroke="var(--stroke-0, white)" stroke-width="2.25" stroke-linecap="round" stroke-linejoin="round"/>
</g>
</svg>
