<svg preserveAspectRatio="none" width="100%" height="100%" overflow="visible" style="display: block;" viewBox="0 0 27 27" fill="none" xmlns="http://www.w3.org/2000/svg">
<g id="moon-star">
<g id="Icon">
<path d="M20.25 2.25L20.945 3.64003C21.2437 4.23738 21.393 4.53606 21.5925 4.79488C21.7696 5.02454 21.9755 5.23043 22.2051 5.40747C22.4639 5.60697 22.7626 5.75631 23.36 6.05498L24.75 6.75L23.36 7.44502C22.7626 7.74369 22.4639 7.89303 22.2051 8.09253C21.9755 8.26957 21.7696 8.47546 21.5925 8.70512C21.393 8.96394 21.2437 9.26262 20.945 9.85997L20.25 11.25L19.555 9.85997C19.2563 9.26262 19.107 8.96394 18.9075 8.70512C18.7304 8.47546 18.5245 8.26957 18.2949 8.09253C18.0361 7.89303 17.7374 7.74369 17.14 7.44502L15.75 6.75L17.14 6.05499C17.7374 5.75631 18.0361 5.60697 18.2949 5.40747C18.5245 5.23043 18.7304 5.02454 18.9075 4.79488C19.107 4.53606 19.2563 4.23738 19.555 3.64003L20.25 2.25Z" stroke="var(--stroke-0, white)" stroke-width="2.25" stroke-linecap="round" stroke-linejoin="round"/>
<path d="M23.625 15.063C22.1501 17.6501 19.3663 19.3944 16.1752 19.3944C11.4425 19.3944 7.60584 15.5578 7.60584 10.8251C7.60584 7.63373 9.35042 4.84981 11.9379 3.375C6.50227 3.89038 2.25 8.46779 2.25 14.0384C2.25 19.9542 7.04578 24.75 12.9617 24.75C18.532 24.75 23.1092 20.4982 23.625 15.063Z" stroke="var(--stroke-0, white)" stroke-width="2.25" stroke-linecap="round" stroke-linejoin="round"/>
</g>
</g>
</svg>
