<svg preserveAspectRatio="none" width="100%" height="100%" overflow="visible" style="display: block;" viewBox="0 0 27 27" fill="none" xmlns="http://www.w3.org/2000/svg">
<g id="settings-04">
<path id="Icon" d="M3.375 9L16.875 9M16.875 9C16.875 10.864 18.386 12.375 20.25 12.375C22.114 12.375 23.625 10.864 23.625 9C23.625 7.13604 22.114 5.625 20.25 5.625C18.386 5.625 16.875 7.13604 16.875 9ZM10.125 18L23.625 18M10.125 18C10.125 19.864 8.61396 21.375 6.75 21.375C4.88604 21.375 3.375 19.864 3.375 18C3.375 16.136 4.88604 14.625 6.75 14.625C8.61396 14.625 10.125 16.136 10.125 18Z" stroke="var(--stroke-0, white)" stroke-width="2.25" stroke-linecap="round" stroke-linejoin="round"/>
</g>
</svg>
