<svg preserveAspectRatio="none" width="100%" height="100%" overflow="visible" style="display: block;" viewBox="0 0 27 27" fill="none" xmlns="http://www.w3.org/2000/svg">
<g id="settings-02">
<g id="Icon">
<path d="M10.5695 21.7925L11.227 23.2713C11.4224 23.7114 11.7414 24.0854 12.1452 24.3479C12.5491 24.6104 13.0204 24.7501 13.502 24.75C13.9836 24.7501 14.4549 24.6104 14.8587 24.3479C15.2626 24.0854 15.5815 23.7114 15.777 23.2713L16.4345 21.7925C16.6685 21.2678 17.0622 20.8303 17.5595 20.5425C18.0599 20.2539 18.6387 20.1309 19.2132 20.1913L20.822 20.3625C21.3009 20.4132 21.7842 20.3238 22.2133 20.1052C22.6424 19.8867 22.9988 19.5484 23.2395 19.1312C23.4804 18.7144 23.5952 18.2366 23.5699 17.7557C23.5446 17.2749 23.3804 16.8118 23.097 16.4225L22.1445 15.1138C21.8053 14.6443 21.6241 14.0792 21.627 13.5C21.6269 12.9224 21.8098 12.3596 22.1495 11.8925L23.102 10.5838C23.3854 10.1945 23.5496 9.73133 23.5749 9.25051C23.6002 8.76969 23.4854 8.29186 23.2445 7.875C23.0038 7.45789 22.6474 7.11955 22.2183 6.90101C21.7892 6.68246 21.3059 6.5931 20.827 6.64375L19.2182 6.815C18.6437 6.87534 18.0649 6.75239 17.5645 6.46375C17.0663 6.17428 16.6724 5.73453 16.4395 5.2075L15.777 3.72875C15.5815 3.28857 15.2626 2.91455 14.8587 2.65207C14.4549 2.38959 13.9836 2.24992 13.502 2.25C13.0204 2.24992 12.5491 2.38959 12.1452 2.65207C11.7414 2.91455 11.4224 3.28857 11.227 3.72875L10.5695 5.2075C10.3365 5.73453 9.94272 6.17428 9.44449 6.46375C8.94411 6.75239 8.36524 6.87534 7.79074 6.815L6.17699 6.64375C5.69811 6.5931 5.21482 6.68246 4.78572 6.90101C4.35662 7.11955 4.00013 7.45789 3.75949 7.875C3.51854 8.29186 3.40375 8.76969 3.42904 9.25051C3.45434 9.73133 3.61863 10.1945 3.90199 10.5838L4.85449 11.8925C5.19417 12.3596 5.3771 12.9224 5.37699 13.5C5.3771 14.0776 5.19417 14.6404 4.85449 15.1075L3.90199 16.4163C3.61863 16.8055 3.45434 17.2687 3.42904 17.7495C3.40375 18.2303 3.51854 18.7081 3.75949 19.125C4.00037 19.5419 4.3569 19.8801 4.78594 20.0986C5.21498 20.3171 5.69815 20.4066 6.17699 20.3563L7.78574 20.185C8.36024 20.1247 8.93911 20.2476 9.43949 20.5362C9.93959 20.8249 10.3352 21.2647 10.5695 21.7925Z" stroke="var(--stroke-0, white)" stroke-width="2.25" stroke-linecap="round" stroke-linejoin="round"/>
<path d="M13.5 16.875C15.3639 16.875 16.875 15.364 16.875 13.5C16.875 11.636 15.3639 10.125 13.5 10.125C11.636 10.125 10.125 11.636 10.125 13.5C10.125 15.364 11.636 16.875 13.5 16.875Z" stroke="var(--stroke-0, white)" stroke-width="2.25" stroke-linecap="round" stroke-linejoin="round"/>
</g>
</g>
</svg>
