<svg preserveAspectRatio="none" width="100%" height="100%" overflow="visible" style="display: block;" viewBox="0 0 27 27" fill="none" xmlns="http://www.w3.org/2000/svg">
<g id="users-01">
<path id="Icon" d="M24.75 23.625V21.375C24.75 19.2782 23.3159 17.5163 21.375 17.0168M17.4375 3.7021C19.0867 4.36966 20.25 5.98647 20.25 7.875C20.25 9.76353 19.0867 11.3803 17.4375 12.0479M19.125 23.625C19.125 21.5283 19.125 20.4799 18.7825 19.6529C18.3257 18.5503 17.4497 17.6743 16.3471 17.2175C15.5201 16.875 14.4717 16.875 12.375 16.875H9C6.90326 16.875 5.85489 16.875 5.02792 17.2175C3.9253 17.6743 3.04926 18.5503 2.59254 19.6529C2.25 20.4799 2.25 21.5283 2.25 23.625M15.1875 7.875C15.1875 10.3603 13.1728 12.375 10.6875 12.375C8.20222 12.375 6.1875 10.3603 6.1875 7.875C6.1875 5.38972 8.20222 3.375 10.6875 3.375C13.1728 3.375 15.1875 5.38972 15.1875 7.875Z" stroke="var(--stroke-0, white)" stroke-width="2.25" stroke-linecap="round" stroke-linejoin="round"/>
</g>
</svg>
