<svg width="17" height="17" viewBox="0 0 17 17" fill="none" xmlns="http://www.w3.org/2000/svg">
<path d="M3.91 1.87L2.805 3.34334C2.58614 3.63516 2.4767 3.78107 2.47924 3.9032C2.48145 4.00948 2.53129 4.10915 2.61499 4.17469C2.71117 4.25 2.89356 4.25 3.25833 4.25H13.7417C14.1064 4.25 14.2888 4.25 14.385 4.17469C14.4687 4.10915 14.5185 4.00948 14.5208 3.9032C14.5233 3.78107 14.4139 3.63516 14.195 3.34334L13.09 1.87M3.91 1.87C4.03467 1.70378 4.097 1.62067 4.176 1.56073C4.24596 1.50764 4.32519 1.46802 4.40965 1.4439C4.505 1.41667 4.60889 1.41667 4.81667 1.41667H12.1833C12.3911 1.41667 12.495 1.41667 12.5904 1.4439C12.6748 1.46802 12.754 1.50764 12.824 1.56073C12.903 1.62067 12.9653 1.70378 13.09 1.87M3.91 1.87L2.57833 3.64556C2.41013 3.86983 2.32603 3.98196 2.26631 4.10545C2.21332 4.21503 2.17467 4.33098 2.15132 4.45043C2.125 4.58506 2.125 4.72522 2.125 5.00556L2.125 13.3167C2.125 14.1101 2.125 14.5068 2.27941 14.8098C2.41523 15.0764 2.63195 15.2931 2.89851 15.4289C3.20155 15.5833 3.59826 15.5833 4.39167 15.5833L12.6083 15.5833C13.4017 15.5833 13.7984 15.5833 14.1015 15.4289C14.368 15.2931 14.5848 15.0764 14.7206 14.8098C14.875 14.5068 14.875 14.1101 14.875 13.3167V5.00556C14.875 4.72522 14.875 4.58506 14.8487 4.45043C14.8253 4.33098 14.7867 4.21503 14.7337 4.10545C14.674 3.98196 14.5899 3.86983 14.4217 3.64556L13.09 1.87M11.3333 7.08334C11.3333 7.83478 11.0348 8.55545 10.5035 9.08681C9.97212 9.61816 9.25145 9.91667 8.5 9.91667C7.74855 9.91667 7.02788 9.61816 6.49653 9.08681C5.96518 8.55545 5.66667 7.83478 5.66667 7.08334" stroke="#DFEAFF" stroke-width="1.5" stroke-linecap="round" stroke-linejoin="round"/>
</svg>
