<svg width="159" height="19" viewBox="0 0 159 19" fill="none" xmlns="http://www.w3.org/2000/svg">
<path d="M9.69802 18.98C8.31136 18.98 7.02869 18.7373 5.85002 18.252C4.68869 17.7666 3.66602 17.0906 2.78202 16.224C1.89802 15.3573 1.21336 14.352 0.728022 13.208C0.242689 12.0466 2.21953e-05 10.7986 2.21953e-05 9.46397C2.21953e-05 8.11197 0.242689 6.86397 0.728022 5.71997C1.21336 4.57597 1.88936 3.5793 2.75602 2.72997C3.62269 1.8633 4.63669 1.19597 5.79802 0.727967C6.97669 0.242634 8.25936 -3.26633e-05 9.64602 -3.26633e-05C11.0154 -3.26633e-05 12.2807 0.242634 13.442 0.727967C14.6207 1.19597 15.6434 1.8633 16.51 2.72997C17.394 3.5793 18.0787 4.58464 18.564 5.74597C19.0494 6.88997 19.292 8.13797 19.292 9.48997C19.292 10.8246 19.0494 12.0726 18.564 13.234C18.0787 14.378 17.4027 15.3833 16.536 16.25C15.6694 17.0993 14.6467 17.7666 13.468 18.252C12.3067 18.7373 11.05 18.98 9.69802 18.98ZM9.64602 15.262C10.738 15.262 11.6914 15.0193 12.506 14.534C13.338 14.0486 13.9794 13.3726 14.43 12.506C14.8807 11.622 15.106 10.608 15.106 9.46397C15.106 8.5973 14.976 7.8173 14.716 7.12397C14.456 6.4133 14.0834 5.80664 13.598 5.30397C13.1127 4.78397 12.532 4.39397 11.856 4.13397C11.1974 3.85663 10.4607 3.71797 9.64602 3.71797C8.55402 3.71797 7.59202 3.96063 6.76002 4.44597C5.94536 4.91397 5.31269 5.5813 4.86202 6.44797C4.41136 7.2973 4.18602 8.30263 4.18602 9.46397C4.18602 10.3306 4.31602 11.1193 4.57602 11.83C4.83602 12.5406 5.20002 13.156 5.66802 13.676C6.15336 14.1786 6.73402 14.5686 7.41002 14.846C8.08602 15.1233 8.83136 15.262 9.64602 15.262ZM23.4433 18.668V0.311968H26.3033L27.5253 3.97797V18.668H23.4433ZM36.1053 18.668L25.2893 4.80997L26.3033 0.311968L37.1193 14.17L36.1053 18.668ZM36.1053 18.668L35.0133 15.002V0.311968H39.0953V18.668H36.1053ZM44.1986 18.668V0.311968H48.2806V18.668H44.1986ZM47.3186 18.668V15.132H57.3806V18.668H47.3186ZM47.3186 10.998V7.59197H56.4706V10.998H47.3186ZM47.3186 3.82197V0.311968H57.2506V3.82197H47.3186Z" fill="#5187F1"/>
<path d="M70.1346 18.954C68.7653 18.954 67.4913 18.72 66.3126 18.252C65.1513 17.7666 64.1286 17.0906 63.2446 16.224C62.3779 15.3573 61.7019 14.352 61.2166 13.208C60.7313 12.0466 60.4886 10.7986 60.4886 9.46397C60.4886 8.1293 60.7313 6.88997 61.2166 5.74597C61.7019 4.58464 62.3779 3.5793 63.2446 2.72997C64.1113 1.88063 65.1253 1.22197 66.2866 0.753968C67.4653 0.268635 68.7393 0.0259686 70.1086 0.0259686C71.5646 0.0259686 72.856 0.259968 73.9826 0.727967C75.1266 1.19597 76.1233 1.8373 76.9726 2.65197L74.2426 5.40797C73.7573 4.88797 73.168 4.48063 72.4746 4.18597C71.7986 3.8913 71.01 3.74397 70.1086 3.74397C69.3113 3.74397 68.5746 3.88264 67.8986 4.15997C67.2399 4.41997 66.6679 4.8013 66.1826 5.30397C65.7146 5.80664 65.3419 6.4133 65.0646 7.12397C64.8046 7.83463 64.6746 8.61463 64.6746 9.46397C64.6746 10.3306 64.8046 11.1193 65.0646 11.83C65.3419 12.5406 65.7146 13.1473 66.1826 13.65C66.6679 14.1526 67.2399 14.5426 67.8986 14.82C68.5746 15.0973 69.3113 15.236 70.1086 15.236C71.0446 15.236 71.8593 15.0886 72.5526 14.794C73.2459 14.4993 73.8439 14.092 74.3466 13.572L77.1026 16.328C76.2186 17.1426 75.2046 17.784 74.0606 18.252C72.934 18.72 71.6253 18.954 70.1346 18.954ZM80.9104 18.668V0.311968H84.9924V18.668H80.9104ZM84.0564 18.668V15.08H93.1304V18.668H84.0564ZM97.0446 18.668V0.311968H101.127V18.668H97.0446ZM106.222 18.668V0.311968H110.304V18.668H106.222ZM109.342 18.668V15.132H119.404V18.668H109.342ZM109.342 10.998V7.59197H118.494V10.998H109.342ZM109.342 3.82197V0.311968H119.274V3.82197H109.342ZM123.778 18.668V0.311968H126.638L127.86 3.97797V18.668H123.778ZM136.44 18.668L125.624 4.80997L126.638 0.311968L137.454 14.17L136.44 18.668ZM136.44 18.668L135.348 15.002V0.311968H139.43V18.668H136.44ZM149.031 18.668V0.571968H153.113V18.668H149.031ZM143.285 3.87397V0.311968H158.859V3.87397H143.285Z" fill="#1878F1"/>
</svg>
